REM DIRINDEX 1\2,1\3,1\4,1\5,1\6
REM DIRNAME cjc030,folder01,folder02,folder03,folder04,folder05
TITLE ""
FILE "Disc3Track26.mp3" MP3
  TRACK 01 AUDIO
    TITLE "3:cjc030_04799"
    INDEX 01 00:00:00
  TRACK 02 AUDIO
    TITLE "0:"
    INDEX 01 00:01:01
  TRACK 03 AUDIO
    TITLE "4:cjc030_04800"
    INDEX 01 00:01:09
  TRACK 04 AUDIO
    TITLE "0:"
    INDEX 01 00:06:02
  TRACK 05 AUDIO
    TITLE "5:cjc030_04801"
    INDEX 01 00:06:12
  TRACK 06 AUDIO
    TITLE "0:"
    INDEX 01 00:07:15
  TRACK 07 AUDIO
    TITLE "6:cjc030_04802"
    INDEX 01 00:07:31
  TRACK 08 AUDIO
    TITLE "0:"
    INDEX 01 00:12:34
  TRACK 09 AUDIO
    TITLE "3:cjc030_04803"
    INDEX 01 00:13:06
  TRACK 10 AUDIO
    TITLE "0:"
    INDEX 01 00:14:07
  TRACK 11 AUDIO
    TITLE "4:cjc030_04804"
    INDEX 01 00:14:15
  TRACK 12 AUDIO
    TITLE "0:"
    INDEX 01 00:16:00
  TRACK 13 AUDIO
    TITLE "5:cjc030_04805"
    INDEX 01 00:16:10
  TRACK 14 AUDIO
    TITLE "0:"
    INDEX 01 00:17:12
  TRACK 15 AUDIO
    TITLE "6:cjc030_04806"
    INDEX 01 00:17:25
  TRACK 16 AUDIO
    TITLE "0:"
    INDEX 01 00:20:18
  TRACK 17 AUDIO
    TITLE "3:cjc030_04807"
    INDEX 01 00:20:65
  TRACK 18 AUDIO
    TITLE "0:"
    INDEX 01 00:21:74
  TRACK 19 AUDIO
    TITLE "4:cjc030_04808"
    INDEX 01 00:22:09
  TRACK 20 AUDIO
    TITLE "0:"
    INDEX 01 00:24:18
  TRACK 21 AUDIO
    TITLE "5:cjc030_04809"
    INDEX 01 00:24:27
  TRACK 22 AUDIO
    TITLE "0:"
    INDEX 01 00:25:37
  TRACK 23 AUDIO
    TITLE "6:cjc030_04810"
    INDEX 01 00:25:46
  TRACK 24 AUDIO
    TITLE "0:"
    INDEX 01 00:27:22
  TRACK 25 AUDIO
    TITLE "3:cjc030_04811"
    INDEX 01 00:27:69
  TRACK 26 AUDIO
    TITLE "0:"
    INDEX 01 00:29:11
  TRACK 27 AUDIO
    TITLE "4:cjc030_04812"
    INDEX 01 00:29:21
  TRACK 28 AUDIO
    TITLE "0:"
    INDEX 01 00:32:05
  TRACK 29 AUDIO
    TITLE "5:cjc030_04813"
    INDEX 01 00:32:15
  TRACK 30 AUDIO
    TITLE "0:"
    INDEX 01 00:33:30
  TRACK 31 AUDIO
    TITLE "6:cjc030_04814"
    INDEX 01 00:33:46
  TRACK 32 AUDIO
    TITLE "0:"
    INDEX 01 00:35:63
  TRACK 33 AUDIO
    TITLE "3:cjc030_04815"
    INDEX 01 00:36:35
  TRACK 34 AUDIO
    TITLE "0:"
    INDEX 01 00:37:54
  TRACK 35 AUDIO
    TITLE "4:cjc030_04816"
    INDEX 01 00:37:63
  TRACK 36 AUDIO
    TITLE "0:"
    INDEX 01 00:39:47
  TRACK 37 AUDIO
    TITLE "5:cjc030_04817"
    INDEX 01 00:39:54
  TRACK 38 AUDIO
    TITLE "0:"
    INDEX 01 00:41:00
  TRACK 39 AUDIO
    TITLE "6:cjc030_04818"
    INDEX 01 00:41:12
  TRACK 40 AUDIO
    TITLE "0:"
    INDEX 01 00:42:63
  TRACK 41 AUDIO
    TITLE "3:cjc030_04819"
    INDEX 01 00:43:37
  TRACK 42 AUDIO
    TITLE "0:"
    INDEX 01 00:44:56
  TRACK 43 AUDIO
    TITLE "4:cjc030_04820"
    INDEX 01 00:44:63
  TRACK 44 AUDIO
    TITLE "0:"
    INDEX 01 00:47:11
  TRACK 45 AUDIO
    TITLE "5:cjc030_04821"
    INDEX 01 00:47:21
  TRACK 46 AUDIO
    TITLE "0:"
    INDEX 01 00:48:40
  TRACK 47 AUDIO
    TITLE "6:cjc030_04822"
    INDEX 01 00:48:51
  TRACK 48 AUDIO
    TITLE "0:"
    INDEX 01 00:50:39
  TRACK 49 AUDIO
    TITLE "3:cjc030_04823"
    INDEX 01 00:51:11
  TRACK 50 AUDIO
    TITLE "0:"
    INDEX 01 00:52:32
  TRACK 51 AUDIO
    TITLE "4:cjc030_04824"
    INDEX 01 00:52:39
  TRACK 52 AUDIO
    TITLE "0:"
    INDEX 01 00:54:72
  TRACK 53 AUDIO
    TITLE "5:cjc030_04825"
    INDEX 01 00:55:04
  TRACK 54 AUDIO
    TITLE "0:"
    INDEX 01 00:56:25
  TRACK 55 AUDIO
    TITLE "6:cjc030_04826"
    INDEX 01 00:56:37
  TRACK 56 AUDIO
    TITLE "0:"
    INDEX 01 00:58:36
  TRACK 57 AUDIO
    TITLE "3:cjc030_04827"
    INDEX 01 00:59:10
  TRACK 58 AUDIO
    TITLE "0:"
    INDEX 01 01:00:39
  TRACK 59 AUDIO
    TITLE "4:cjc030_04828"
    INDEX 01 01:00:45
  TRACK 60 AUDIO
    TITLE "0:"
    INDEX 01 01:02:26
  TRACK 61 AUDIO
    TITLE "5:cjc030_04829"
    INDEX 01 01:02:36
  TRACK 62 AUDIO
    TITLE "0:"
    INDEX 01 01:03:63
  TRACK 63 AUDIO
    TITLE "3:cjc030_04830"
    INDEX 01 01:04:39
  TRACK 64 AUDIO
    TITLE "0:"
    INDEX 01 01:05:68
  TRACK 65 AUDIO
    TITLE "4:cjc030_04831"
    INDEX 01 01:06:00
  TRACK 66 AUDIO
    TITLE "0:"
    INDEX 01 01:07:29
  TRACK 67 AUDIO
    TITLE "5:cjc030_04832"
    INDEX 01 01:07:39
  TRACK 68 AUDIO
    TITLE "0:"
    INDEX 01 01:08:66
  TRACK 69 AUDIO
    TITLE "3:cjc030_04833"
    INDEX 01 01:09:38
  TRACK 70 AUDIO
    TITLE "0:"
    INDEX 01 01:10:55
  TRACK 71 AUDIO
    TITLE "4:cjc030_04834"
    INDEX 01 01:10:63
  TRACK 72 AUDIO
    TITLE "0:"
    INDEX 01 01:13:10
  TRACK 73 AUDIO
    TITLE "5:cjc030_04835"
    INDEX 01 01:13:18
  TRACK 74 AUDIO
    TITLE "0:"
    INDEX 01 01:14:33
  TRACK 75 AUDIO
    TITLE "6:cjc030_04836"
    INDEX 01 01:14:49
  TRACK 76 AUDIO
    TITLE "0:"
    INDEX 01 01:17:61
  TRACK 77 AUDIO
    TITLE "3:cjc030_04837"
    INDEX 01 01:18:33
  TRACK 78 AUDIO
    TITLE "0:"
    INDEX 01 01:19:50
  TRACK 79 AUDIO
    TITLE "4:cjc030_04838"
    INDEX 01 01:19:60
  TRACK 80 AUDIO
    TITLE "0:"
    INDEX 01 01:21:53
  TRACK 81 AUDIO
    TITLE "5:cjc030_04839"
    INDEX 01 01:21:63
  TRACK 82 AUDIO
    TITLE "0:"
    INDEX 01 01:23:03
  TRACK 83 AUDIO
    TITLE "3:cjc030_04840"
    INDEX 01 01:23:63
  TRACK 84 AUDIO
    TITLE "0:"
    INDEX 01 01:25:06
  TRACK 85 AUDIO
    TITLE "4:cjc030_04841"
    INDEX 01 01:25:15
  TRACK 86 AUDIO
    TITLE "0:"
    INDEX 01 01:27:30
  TRACK 87 AUDIO
    TITLE "5:cjc030_04842"
    INDEX 01 01:27:40
  TRACK 88 AUDIO
    TITLE "0:"
    INDEX 01 01:28:61
  TRACK 89 AUDIO
    TITLE "6:cjc030_04843"
    INDEX 01 01:28:71
  TRACK 90 AUDIO
    TITLE "0:"
    INDEX 01 01:30:60
  TRACK 91 AUDIO
    TITLE "3:cjc030_04844"
    INDEX 01 01:31:34
  TRACK 92 AUDIO
    TITLE "0:"
    INDEX 01 01:32:57
  TRACK 93 AUDIO
    TITLE "4:cjc030_04845"
    INDEX 01 01:32:64
  TRACK 94 AUDIO
    TITLE "0:"
    INDEX 01 01:35:06
  TRACK 95 AUDIO
    TITLE "5:cjc030_04846"
    INDEX 01 01:35:12
  TRACK 96 AUDIO
    TITLE "0:"
    INDEX 01 01:36:37
  TRACK 97 AUDIO
    TITLE "6:cjc030_04847"
    INDEX 01 01:36:50
  TRACK 98 AUDIO
    TITLE "0:"
    INDEX 01 01:41:01
